# xmcd
#
# Track frame offsets: 
#        300
#        5160
#        15617
#        29979
#        32244
#        48414
#        64617
#        79891
#        82293
#        98970
#        116758
#        132681
#        134657
#        152590
#        169785
#        187585
#        199813
#        206167
#        223021
#        241464
#        257165
#
# Disc length: 3496 seconds
#
# Revision: 0
# Processed by: cddbd v1.5.2PL0 Copyright (c) Steve Scherf et al.
# Submitted via: ExactAudioCopyFreeDBPlugin 1.0
#
DISCID=420da415
DTITLE=Olek - Schwarz Matt
DYEAR=2007
DGENRE=Hip-Hop
TTITLE0=Intro
TTITLE1=Echtes leben
TTITLE2=Oh Ell
TTITLE3=Eisodur Interlude
TTITLE4=Flüssiger Mut
TTITLE5=Massdestruction (mit Ozzy Pop and O-Flow)
TTITLE6=Eisiger Beleidiger (mit Huss)
TTITLE7=Disbo Interlude
TTITLE8=Süd (mit O-Flow and Epok)
TTITLE9=In Der Stunde Des Redens (mit Stef)
TTITLE10=Serifenlos (mit Retrogott)
TTITLE11=Hitzerot Interlude
TTITLE12=Zwei Schatten (mit Un Malheur Midi)
TTITLE13=Blut Und Bier
TTITLE14=Flüster Leise (mit Ozzy Pop and Ganove)
TTITLE15=Realism
TTITLE16=Belton Interlude
TTITLE17=76 Team (mit Aedno, Ganove and Vagabund)
TTITLE18=Digitale Tags (mit Ozzie Pop)
TTITLE19=Aqhol (mit Ganove)
TTITLE20=Outro
EXTD=
EXTT0=
EXTT1=
EXTT2=
EXTT3=
EXTT4=
EXTT5=
EXTT6=
EXTT7=
EXTT8=
EXTT9=
EXTT10=
EXTT11=
EXTT12=
EXTT13=
EXTT14=
EXTT15=
EXTT16=
EXTT17=
EXTT18=
EXTT19=
EXTT20=
PLAYORDER=
